<svg width="975" height="280" viewBox="0 0 975 280" fill="none"> <defs> <clipPath id="text-path" clipPathUnits="objectBoundingBox" transform="scale(0.00104, 0.003550)"> <path d="M107.73 229.97C155.25 229.97 189.54 205.4 194.4 157.61H151.47C147.96 182.45 131.22 194.6 107.19 194.6C75.33 194.6 56.97 171.38 56.97 131.42V129.26C56.97 89.3 76.41 65.54 106.92 65.54C131.22 65.54 144.18 77.96 147.42 101.18H192.24C187.65 53.66 153.09 30.98 106.65 30.98C51.84 30.98 10.8 70.94 10.8 129.53V131.69C10.8 191.09 44.55 229.97 107.73 229.97ZM204.253 227H243.403V156.26C243.403 129.26 260.143 119.81 289.033 120.08V83.63C266.083 83.9 252.313 93.89 243.403 112.79V85.79H204.253V227ZM335.164 229.97C357.304 229.97 369.724 221.33 377.824 209.99V227H415.894V134.93C415.894 96.59 391.324 82.55 356.764 82.55C322.204 82.55 295.744 97.4 293.314 130.88H330.304C331.924 118.73 338.944 110.9 354.334 110.9C372.154 110.9 377.284 120.08 377.284 136.82V142.49H361.354C318.154 142.49 287.914 154.91 287.914 187.85C287.914 217.55 309.514 229.97 335.164 229.97ZM346.774 202.7C332.464 202.7 326.254 195.95 326.254 185.69C326.254 170.57 339.484 165.71 362.164 165.71H377.284V177.59C377.284 193.25 364.054 202.7 346.774 202.7ZM440.977 227H479.857V113.6H510.637V85.79H479.857V68.51C479.857 57.71 484.987 49.88 497.407 49.88C503.077 49.88 507.937 50.96 511.717 52.31V22.88C505.507 20.99 499.837 20.18 491.467 20.18C460.147 20.18 440.977 36.65 440.977 69.59V85.79H422.347V113.6H440.977V227ZM572.58 229.7C583.11 229.7 590.94 227.81 596.34 225.92V195.68C591.75 197.57 587.43 198.38 581.49 198.38C571.5 198.38 565.83 192.98 565.83 181.64V113.6H595.53V85.79H565.83V55.28H526.95V85.79H508.86V113.6H526.95V185.15C526.95 214.58 542.88 229.7 572.58 229.7ZM608.868 227H647.748V85.79H608.868V227ZM628.038 66.62C640.728 66.62 650.448 57.44 650.448 45.29C650.448 33.14 640.728 23.96 628.038 23.96C615.618 23.96 605.898 33.14 605.898 45.29C605.898 57.44 615.618 66.62 628.038 66.62ZM668.725 227H707.875V145.46C707.875 124.67 720.565 114.41 737.305 114.41C754.585 114.41 762.145 123.59 762.145 142.76V227H801.295V137.09C801.295 99.29 781.585 82.55 753.775 82.55C730.285 82.55 714.895 94.16 707.875 108.2V85.79H668.725V227ZM882.479 279.11C928.919 279.11 956.729 257.78 956.999 215.93V85.79H918.119V106.85C910.019 92.54 896.249 82.55 873.299 82.55C838.199 82.55 811.199 110.9 811.199 151.4V153.29C811.199 195.14 838.469 220.79 872.759 220.79C893.549 220.79 910.289 208.37 918.119 194.6V215.93C918.119 238.07 906.239 250.49 882.479 250.49C862.499 250.49 853.589 242.39 851.159 229.97H812.279C816.059 259.13 836.849 279.11 882.479 279.11ZM884.369 191.36C864.929 191.36 851.159 176.78 851.159 153.29V151.13C851.159 127.91 863.309 112.25 885.179 112.25C906.509 112.25 919.199 126.83 919.199 150.86V152.75C919.199 176.78 904.889 191.36 884.369 191.36Z" fill="black"></path> </clipPath> </defs> </svg>